Coordinates
version=1
nRows=10
nColumns=63
inDegrees=yes

Units are S.I. units (second, meters, Newtons, ...)
If the header above contains a line with 'inDegrees', this indicates whether rotational values are in degrees (yes) or radians (no).

endheader
time	pelvis_tilt	pelvis_list	pelvis_rotation	pelvis_tx	pelvis_ty	pelvis_tz	hip_flexion_r	hip_adduction_r	hip_rotation_r	knee_angle_r	knee_angle_r_beta	ankle_angle_r	subtalar_angle_r	mtp_angle_r	hip_flexion_l	hip_adduction_l	hip_rotation_l	knee_angle_l	knee_angle_l_beta	ankle_angle_l	subtalar_angle_l	mtp_angle_l	L5_S1_Flex_Ext	L5_S1_Lat_Bending	L5_S1_axial_rotation	L4_L5_Flex_Ext	L4_L5_Lat_Bending	L4_L5_axial_rotation	L3_L4_Flex_Ext	L3_L4_Lat_Bending	L3_L4_axial_rotation	L2_L3_Flex_Ext	L2_L3_Lat_Bending	L2_L3_axial_rotation	L1_L2_Flex_Ext	L1_L2_Lat_Bending	L1_L2_axial_rotation	L1_T12_Flex_Ext	L1_T12_Lat_Bending	L1_T12_axial_rotation	Abs_r3	Abs_r2	Abs_r1	Abs_t1	Abs_t2	neck_flexion	neck_bending	neck_rotation	arm_flex_r	arm_add_r	arm_rot_r	elbow_flex_r	pro_sup_r	wrist_flex_r	wrist_dev_r	arm_flex_l	arm_add_l	arm_rot_l	elbow_flex_l	pro_sup_l	wrist_flex_l	wrist_dev_l
      8.01700000	    -52.57191360	      0.91219251	      5.99235915	     -0.34837325	      0.98106107	      0.03418266	    100.07753237	    -11.16052651	     -1.53673434	     53.35324959	      0.93118987	     -2.94994825	      0.30636072	      0.00000000	    115.30526901	     -5.40371791	      0.84392742	    110.67594542	      1.93165965	     -0.09591112	      6.84396706	      0.00000000	     -0.09140795	     -0.46611138	     -0.99038227	     -0.16975371	     -0.61992814	     -1.05228116	     -0.15017413	     -1.13330322	     -1.05228116	     -0.10447015	     -1.13330322	     -0.86658449	     -0.08488143	     -0.95049433	     -0.80468560	     -0.05223051	     -0.72200653	     -0.74278670	     -0.65291788	     -5.27274519	     -5.50820908	      0.00000000	      0.00000000	      0.00000000	      0.00000000	      0.00000000	     65.94877433	     -7.44438955	     -5.41512181	     42.33447383	     52.83731590	      0.00000000	      5.00000014	     70.44539626	     -9.43588569	      5.59632746	     42.71621532	     57.99673210	      0.00000000	      5.00000014
      8.02500000	    -52.42655635	      1.93162997	      5.46860794	     -0.34727869	      0.97971720	      0.03504113	     97.99688565	    -10.56996689	     -1.15015546	     51.08290518	      0.89156489	     -3.81945256	      0.28626653	      0.00000000	    117.10281414	     -6.45430277	      0.04708738	    113.02482740	      1.97265537	      1.75350079	      5.91505289	      0.00000000	     -0.09042679	     -0.62580576	     -0.87751219	     -0.16793159	     -0.83232165	     -0.93235670	     -0.14856217	     -1.52158411	     -0.93235670	     -0.10334877	     -1.52158411	     -0.76782317	     -0.08397031	     -1.27614310	     -0.71297866	     -0.05166987	     -0.96937312	     -0.65813414	     -0.64590950	     -7.07923987	     -4.88045955	      0.00000000	      0.00000000	      0.00000000	      0.00000000	      0.00000000	     65.38274167	     -7.30204924	     -6.48957918	     42.41267307	     52.69832208	      0.00000000	      5.00000014	     70.47688876	     -9.64341361	      6.59633300	     43.12803957	     58.11251321	      0.00000000	      5.00000014
      8.03300000	    -52.35323704	      2.80845456	      5.67463547	     -0.34646022	      0.97903436	      0.03454612	     96.01628929	    -10.89674612	     -1.06679553	     49.03885370	      0.85588946	     -4.40447110	      0.22035622	      0.00000000	    118.94922575	     -6.71781391	     -0.89034764	    114.69122397	      2.00173948	      2.70518387	      5.52947016	      0.00000000	     -0.09160539	     -0.76189481	     -0.91058051	     -0.17012037	     -1.01332010	     -0.96749180	     -0.15049850	     -1.85247105	     -0.96749180	     -0.10469580	     -1.85247105	     -0.79675795	     -0.08506477	     -1.55365590	     -0.73984667	     -0.05234332	     -1.18017507	     -0.68293539	     -0.65432815	     -8.61870651	     -5.06437565	      0.00000000	      0.00000000	      0.00000000	      0.00000000	      0.00000000	     64.96594884	     -7.27683592	     -6.88722256	     42.38751885	     52.64203699	      0.00000000	      5.00000014	     70.53180733	     -9.75358626	      7.01964015	     43.35825541	     58.15104808	      0.00000000	      5.00000014
      8.04200000	    -52.30691949	      4.19963784	      5.25021733	     -0.34562491	      0.97848677	      0.03541961	     94.38002708	    -10.46407916	     -0.08587173	     47.43747613	      0.82794015	     -5.55187063	     -0.26423673	      0.00000000	    120.54640773	     -7.87143814	     -2.21625441	    116.14271952	      2.02707286	      3.99291518	      4.28527707	      0.00000000	     -0.09317408	     -0.96875204	     -0.81497693	     -0.17303359	     -1.28844021	     -0.86591299	     -0.15307570	     -2.35542371	     -0.86591299	     -0.10648866	     -2.35542371	     -0.71310481	     -0.08652145	     -1.97547916	     -0.66216875	     -0.05323967	     -1.50059691	     -0.61123270	     -0.66553317	    -10.95871684	     -4.53265718	      0.00000000	      0.00000000	      0.00000000	      0.00000000	      0.00000000	     64.36101891	     -6.93309771	     -8.46272491	     42.67548678	     52.42960838	      0.00000000	      5.00000014	     70.97258169	    -10.25786304	      8.95780145	     43.47210756	     58.38774479	      0.00000000	      5.00000014
      8.05000000	    -52.31158430	      4.95083549	      5.43524287	     -0.34489261	      0.97849706	      0.03465754	     92.68221857	    -10.92342042	     -0.21206681	     46.05706580	      0.80384744	     -5.80681943	     -0.33607754	      0.00000000	    122.28735843	     -8.16519270	     -3.11534833	    117.01223942	      2.04224884	      4.58477452	      4.06921946	      0.00000000	     -0.09133858	     -1.08148585	     -0.84011963	     -0.16962488	     -1.43837618	     -0.89262711	     -0.15006016	     -2.62952469	     -0.89262711	     -0.10439087	     -2.62952469	     -0.73510468	     -0.08481701	     -2.20536594	     -0.68259720	     -0.05219087	     -1.67522158	     -0.63008972	     -0.65242236	    -12.23398421	     -4.67249336	      0.00000000	      0.00000000	      0.00000000	      0.00000000	      0.00000000	     64.01503960	     -7.01138319	     -8.63185825	     42.59469794	     52.39810285	      0.00000000	      5.00000014	     70.98267785	    -10.31430209	      9.23548550	     43.70687102	     58.40100458	      0.00000000	      5.00000014
      8.05800000	    -52.38429264	      6.20812608	      5.30098634	     -0.34431422	      0.97881273	      0.03491540	     91.39790525	    -10.95656951	      0.61630504	     45.15031722	      0.78802169	     -6.38896275	     -0.59377281	      0.00000000	    123.72784255	     -9.07397154	     -4.48959325	    117.51565503	      2.05103510	      5.09820894	      3.16425920	      0.00000000	     -0.09022402	     -1.26365026	     -0.79541721	     -0.16755503	     -1.68065484	     -0.84513078	     -0.14822905	     -3.07243924	     -0.84513078	     -0.10311704	     -3.07243924	     -0.69599006	     -0.08378203	     -2.57683561	     -0.64627648	     -0.05155401	     -1.95739425	     -0.59656291	     -0.64446117	    -14.29466444	     -4.42387189	      0.00000000	      0.00000000	      0.00000000	      0.00000000	      0.00000000	     63.53502838	     -6.78861430	     -9.72149929	     42.85779749	     52.24477977	      0.00000000	      5.00000014	     71.50936767	    -10.81435143	     11.16415766	     43.67848638	     58.65347874	      0.00000000	      5.00000014
      8.06700000	    -52.47925958	      6.77150399	      5.35152965	     -0.34393351	      0.97954592	      0.03419760	     90.07890846	    -11.30536587	      0.49128219	     44.50733970	      0.77679962	     -6.43459851	     -0.63933522	      0.00000000	    125.29271199	     -9.42308288	     -5.16715584	    117.58556752	      2.05225531	      5.31041504	      3.12865074	      0.00000000	     -0.09012382	     -1.34490259	     -0.79071104	     -0.16736896	     -1.78872044	     -0.84013048	     -0.14806443	     -3.26999615	     -0.84013048	     -0.10300252	     -3.26999615	     -0.69187216	     -0.08368898	     -2.74252536	     -0.64245272	     -0.05149675	     -2.08325411	     -0.59303328	     -0.64374547	    -15.21380706	     -4.39769758	      0.00000000	      0.00000000	      0.00000000	      0.00000000	      0.00000000	     63.34361854	     -6.92224353	     -9.85250522	     42.85480708	     52.22005296	      0.00000000	      5.00000014	     71.60311132	    -10.81885035	     11.41370734	     43.86923656	     58.67210166	      0.00000000	      5.00000014
      8.07500000	    -52.64507944	      7.58624629	      5.35213673	     -0.34376183	      0.98060265	      0.03387402	     89.15101776	    -11.56998872	      0.90592056	     44.40585573	      0.77502839	     -6.41860760	     -0.67320769	      0.00000000	    126.61357166	     -9.95984016	     -6.05350405	    117.22369567	      2.04593945	      5.15906152	      3.01789685	      0.00000000	     -0.09101031	     -1.46038376	     -0.76890736	     -0.16901525	     -1.94231041	     -0.81696407	     -0.14952084	     -3.55077708	     -0.81696407	     -0.10401568	     -3.55077708	     -0.67279394	     -0.08451217	     -2.97801457	     -0.62473723	     -0.05200329	     -2.26213445	     -0.57668052	     -0.65007754	    -16.52015321	     -4.27643205	      0.00000000	      0.00000000	      0.00000000	      0.00000000	      0.00000000	     63.07399422	     -6.93584216	    -10.37825101	     43.12148942	     52.13565422	      0.00000000	      5.00000014	     72.02522041	    -11.01031561	     12.54168568	     43.83518864	     58.81248246	      0.00000000	      5.00000014
      8.08300000	    -52.79344451	      7.76497588	      5.24597338	     -0.34374729	      0.98191942	      0.03326391	     88.24780284	    -11.66035958	      0.91910079	     44.63548792	      0.77903623	     -6.43379197	     -0.69102395	      0.00000000	    127.88457650	    -10.15441073	     -6.29173548	    116.50109365	      2.03332767	      5.30652991	      3.03541573	      0.00000000	     -0.09092666	     -1.48428865	     -0.74804060	     -0.16885990	     -1.97410390	     -0.79479314	     -0.14938341	     -3.60889942	     -0.79479314	     -0.10392008	     -3.60889942	     -0.65453552	     -0.08443450	     -3.02676141	     -0.60778299	     -0.05195549	     -2.29916311	     -0.56103045	     -0.64948005	    -16.79057003	     -4.16037740	      0.00000000	      0.00000000	      0.00000000	      0.00000000	      0.00000000	     63.07965923	     -7.01272726	    -10.42424804	     43.10148944	     52.12067847	      0.00000000	      5.00000014	     72.11844358	    -10.99619265	     12.58183399	     43.91854585	     58.79756169	      0.00000000	      5.00000014
      8.09200000	    -53.10108795	      8.40480980	      5.40008003	     -0.34410319	      0.98368223	      0.03274756	     87.84517931	    -12.02262893	      1.47586759	     45.37429799	      0.79193090	     -5.98892429	     -0.92869676	      0.00000000	    128.80089955	    -10.33557982	     -6.98780940	    115.11731215	      2.00917612	      4.70275256	      3.48848398	      0.00000000	     -0.09091348	     -1.57179720	     -0.75100943	     -0.16883542	     -2.09049027	     -0.79794752	     -0.14936176	     -3.82166770	     -0.79794752	     -0.10390502	     -3.82166770	     -0.65713325	     -0.08442226	     -3.20520884	     -0.61019516	     -0.05194796	     -2.43471386	     -0.56325708	     -0.64938589	    -17.78048425	     -4.17688917	      0.00000000	      0.00000000	      0.00000000	      0.00000000	      0.00000000	     63.00664997	     -7.03727137	    -10.97649312	     43.36840537	     52.03209507	      0.00000000	      5.00000014	     72.61511073	    -11.13914789	     13.70502366	     43.73747615	     58.94514485	      0.00000000	      5.00000014
